<?xml version="1.0" encoding="utf-8"?>
<!-- Generator: Adobe Illustrator 25.0.1, SVG Export Plug-In . SVG Version: 6.00 Build 0)  -->
<svg version="1.1" id="Ebene_1" xmlns="http://www.w3.org/2000/svg" xmlns:xlink="http://www.w3.org/1999/xlink" x="0px" y="0px"
	 viewBox="0 0 595.28 595.28" style="enable-background:new 0 0 595.28 595.28;" xml:space="preserve">
<style type="text/css">
	.st0{fill-rule:evenodd;clip-rule:evenodd;}
	.st1{fill-rule:evenodd;clip-rule:evenodd;fill:#FFFFFF;}
	.st2{fill:#FFFFFF;}
</style>
<path class="st0" d="M150.64,561.54c-11.31-7.44-22.54-14.71-33.57-22.27c-1.26-0.87-2.15-3.42-1.97-5.05
	c0.75-6.82,1.85-13.61,3.09-20.35c0.69-3.79-0.08-6.68-2.95-9.43c-5.21-4.99-9.93-10.5-15.22-15.41c-1.48-1.38-4.38-2.25-6.35-1.88
	c-7.93,1.47-15.75,3.61-23.65,5.26c-1.42,0.29-3.78-0.03-4.54-0.99c-7.8-9.96-15.36-20.1-23.07-30.3
	c6.05-7.45,11.81-14.54,17.84-21.97c-4.61-7.63-9.15-15.35-13.94-22.89c-0.66-1.04-2.57-1.71-3.95-1.8
	c-7.2-0.45-14.43-0.48-21.61-1.09c-1.56-0.14-3.81-1.74-4.33-3.17c-3.78-10.6-7.1-21.36-10.79-31.98c-0.94-2.72-0.27-4.1,2.02-5.6
	c7.63-5.01,15.12-10.22,22.36-15.15c-1.66-8.55-3.6-16.42-4.59-24.42c-0.66-5.26-3.03-7.47-8-8.47c-6.36-1.27-12.66-3.05-18.81-5.12
	c-1.57-0.53-3.5-2.97-3.55-4.59c-0.37-11.62-0.4-23.26-0.23-34.88c0.02-1.37,1.67-3.32,3.04-3.95c6.7-3.08,13.67-5.6,20.32-8.78
	c1.79-0.86,3.65-3.2,4.01-5.13c1.84-9.85,3.32-19.77,4.59-29.71c0.2-1.52-0.88-3.66-2.05-4.82c-4.38-4.33-8.95-8.48-13.65-12.45
	c-2.33-1.97-3.04-3.67-1.88-6.74c3.92-10.36,7.37-20.9,11.34-31.23c0.6-1.57,2.98-3.3,4.68-3.47c8.05-0.8,16.16-0.87,24.2-1.69
	c2-0.2,4.52-1.79,5.57-3.5c4.23-6.9,8.13-14,11.77-21.24c0.84-1.65,0.76-4.37,0-6.11c-2.68-6.12-6.04-11.94-8.7-18.07
	c-0.69-1.61-0.51-4.53,0.53-5.83c8.41-10.41,17.17-20.54,25.71-30.85c1.95-2.34,3.69-2.98,6.76-1.91c7.12,2.5,14.38,4.66,21.71,6.5
	c1.98,0.5,4.84,0.04,6.48-1.14c6.01-4.3,11.83-8.91,17.36-13.8c1.51-1.34,2.62-4.11,2.5-6.13c-0.43-7.2-1.32-14.37-2.33-21.51
	c-0.47-3.29,0.58-5.27,3.42-6.88c8.72-4.95,17.28-10.19,26.07-15.02c1.42-0.78,4.07-0.7,5.46,0.13c7.57,4.49,14.81,9.52,22.41,13.95
	c1.96,1.14,5.01,1.56,7.19,0.97c8.48-2.29,16.88-4.94,25.15-7.89c1.95-0.7,3.99-2.76,4.83-4.7c2.79-6.45,5.21-13.08,7.43-19.75
	c0.99-2.96,2.72-4.14,5.59-4.52c9.94-1.32,19.86-2.87,29.82-3.99c1.36-0.15,3.45,1.28,4.31,2.58c4.01,6,7.55,12.31,11.64,18.26
	c1.08,1.57,3.44,2.99,5.32,3.15c8.93,0.78,17.9,1.27,26.86,1.45c1.79,0.04,4.29-1.27,5.32-2.75c3.6-5.2,6.82-10.69,9.94-16.2
	c1.67-2.94,3.19-4.19,7.03-3.2c10.38,2.68,20.92,4.76,31.44,6.84c3.37,0.66,5.15,2.08,5.67,5.61c0.64,4.34,2.36,8.55,2.68,12.89
	c0.55,7.42,4.06,11.7,11.13,13.91c4.66,1.47,9.15,3.7,13.43,6.09c3.55,1.99,6.46,1.59,9.79-0.36c5.92-3.46,12.11-6.46,18.02-9.94
	c2.45-1.44,4.18-1.52,6.58,0.16c9.37,6.57,18.86,12.97,28.44,19.24c2.65,1.74,3.31,3.51,2.53,6.56c-1.53,5.95-2.91,11.98-3.78,18.06
	c-0.28,1.96,0.67,4.72,2.05,6.17c4.5,4.69,9.26,9.2,14.35,13.24c1.86,1.48,5.06,2.28,7.43,1.91c6.41-1,12.66-2.97,19.05-4.12
	c1.57-0.28,4.12,0.65,5.07,1.9c6.79,8.99,13.37,18.15,19.77,27.43c0.99,1.44,1.37,3.93,0.91,5.63c-1.82,6.79-4.34,13.39-6.05,20.2
	c-0.6,2.41-0.27,5.48,0.74,7.77c2.25,5.14,5.58,9.82,7.72,15c1.96,4.74,5.22,6.01,9.82,5.92c5.11-0.1,10.22,0.26,15.32,0.06
	c2.93-0.11,4.39,0.74,5.31,3.64c2.77,8.71,5.99,17.28,8.69,26.01c0.51,1.65,0.08,4.19-0.92,5.62c-4.35,6.19-9.24,12.01-13.56,18.22
	c-1.24,1.78-1.93,4.47-1.73,6.64c0.81,8.41,1.9,16.8,3.32,25.12c0.3,1.76,2.09,3.9,3.75,4.7c6.66,3.18,13.62,5.73,20.27,8.91
	c1.39,0.67,2.87,3.08,2.78,4.6c-0.63,11.59-1.74,23.16-2.46,34.75c-0.17,2.78-1.05,4.06-3.8,4.64c-5.33,1.12-10.69,2.31-15.83,4.06
	c-1.85,0.63-4.11,2.73-4.5,4.53c-2.17,9.97-3.68,20.07-5.71,30.07c-0.65,3.14-0.27,5.14,2.54,7.06c4.21,2.87,7.98,6.37,12.08,9.41
	c2.32,1.72,2.92,3.38,1.86,6.24c-4.27,11.54-8.33,23.16-12.34,34.79c-0.92,2.67-2.2,3.88-5.28,3.79c-6.33-0.18-12.69-0.07-19,0.46
	c-2,0.17-4.6,1.59-5.66,3.25c-5.43,8.43-10.59,17.04-15.52,25.78c-1.06,1.86-1.42,4.64-0.96,6.74c1.49,6.68,3.74,13.2,5.25,19.88
	c0.42,1.86-0.02,4.63-1.19,6.02c-6.25,7.4-12.72,14.62-19.45,21.58c-1.34,1.39-4.3,2.15-6.29,1.82c-6.76-1.11-13.38-3.01-20.13-4.22
	c-1.82-0.32-4.27,0.12-5.75,1.17c-7.3,5.23-14.5,10.62-21.43,16.33c-1.53,1.26-2.67,4.07-2.56,6.08c0.32,6.13,1.52,12.22,1.96,18.36
	c0.1,1.4-1.1,3.62-2.33,4.29c-9.92,5.33-19.93,10.48-30.06,15.38c-1.43,0.69-4.08,0.38-5.43-0.55c-4.94-3.38-9.74-7-14.23-10.95
	c-2.86-2.52-5.47-2.96-9.01-1.8c-9.18,3.02-18.43,5.84-27.73,8.46c-3.37,0.95-5.37,2.54-6.43,6c-1.8,5.88-4.28,11.54-6.13,17.41
	c-0.91,2.91-2.4,4.3-5.43,4.64c-8.74,0.96-17.45,2.25-26.21,3.04c-1.3,0.11-3.36-1.48-4.08-2.8c-3.21-5.86-5.87-12.02-9.17-17.83
	c-0.89-1.55-3.3-3.1-5.06-3.14c-10.21-0.24-20.44-0.21-30.66,0.16c-2.04,0.08-4.64,1.57-5.92,3.22
	c-3.95,5.16-7.23,10.84-11.14,16.04c-0.94,1.25-3.47,2.32-4.95,2.01c-11.01-2.35-21.98-4.92-32.86-7.79
	c-1.72-0.45-3.67-2.53-4.26-4.28c-1.97-5.82-3.61-11.79-4.89-17.8c-0.93-4.33-2.87-7.05-7.15-8.7c-6.22-2.4-12.09-5.71-18.31-8.14
	c-1.88-0.74-4.84-0.56-6.56,0.46C165.09,551.94,157.95,556.8,150.64,561.54 M557.09,189.47c-7.21,0-14.08-0.18-20.93,0.07
	c-3.45,0.13-4.94-1.16-6.84-4.12c-8.51-13.3-9.97-26.77-2.71-40.98c0.16-0.31,0.37-0.68,0.32-0.99c-0.36-2.4-0.09-5.24-1.3-7.09
	c-3.49-5.28-8.38-9.73-11.29-15.26c-5.74-10.93-13.66-13.71-24.65-8.73c-7.28,3.29-12.14,0.25-18.06-4.5
	c-8.43-6.75-11.55-13.67-7.52-23.75c0.9-2.26,1.51-4.81,1.43-7.21c-0.05-1.87-0.83-4.45-2.21-5.42
	c-8.46-6.03-17.35-11.45-25.74-17.56c-4.22-3.08-7.51-3.63-12.12-0.65c-5.87,3.8-12.2,8.86-18.6,9.28
	c-5.94,0.39-12.23-4.6-18.37-7.22c-0.32-0.14-0.66-0.26-1-0.35c-3.59-0.99-5.37-3.19-5.93-7.03c-0.85-5.91-2.07-11.8-3.65-17.56
	c-0.47-1.69-2.51-3.77-4.17-4.16c-10.96-2.59-22.02-4.68-33.01-7.11c-2.82-0.62-4.46-0.14-5.93,2.55c-2.79,5.09-6.2,9.84-9,14.92
	c-1.49,2.69-3.24,3.75-6.29,3.55c-6.84-0.47-13.7-0.82-20.56-0.93c-4.09-0.06-6.76-1.5-8.77-5.25c-2.65-4.95-6.18-9.42-8.94-14.33
	c-1.75-3.1-3.86-3.92-7.27-3.48c-9.25,1.19-18.52,2.24-27.81,3.01c-3.03,0.25-4.23,1.57-5.15,4.19c-2.31,6.64-4.69,13.28-7.44,19.74
	c-0.76,1.79-2.71,3.68-4.53,4.3c-7.64,2.62-15.38,5.04-23.22,6.95c-2.29,0.56-5.5-0.1-7.51-1.4c-5.6-3.63-10.68-8.07-16.23-11.79
	c-1.51-1.01-4.4-1.47-5.93-0.72c-9.94,4.88-19.74,10.07-29.44,15.43c-1.21,0.67-2.31,2.93-2.19,4.36c0.5,6.67,1.35,13.31,2.25,19.94
	c0.42,3.08-0.32,5.27-2.91,7.26c-5.03,3.85-9.88,7.96-14.6,12.18c-2.41,2.16-4.6,2.47-7.65,1.35c-6.42-2.37-13.09-4.08-19.51-6.47
	c-3.46-1.29-5.61-0.87-8.06,2.09c-7.05,8.57-14.19,17.09-21.86,25.1c-4.02,4.2-4.74,7.57-1.93,12.77c3.48,6.45,8.5,13.6,8.15,20.2
	c-0.35,6.61-6.49,12.91-10.11,19.35c-0.17,0.3-0.31,0.7-0.58,0.87c-1.62,1.02-3.21,2.68-4.93,2.84c-7.53,0.71-15.09,1.16-22.65,1.32
	c-3,0.07-4.35,1.18-5.3,3.88c-3.7,10.44-7.51,20.85-11.46,31.2c-0.97,2.54-0.56,4.13,1.52,5.86c4.59,3.84,9.1,7.8,13.37,11.98
	c1.15,1.12,2.07,3.29,1.88,4.83c-1.07,8.91-2.34,17.8-3.92,26.64c-0.29,1.66-2.01,3.63-3.58,4.38c-6.5,3.09-13.29,5.59-19.77,8.72
	c-1.44,0.69-2.99,3.05-2.95,4.59c0.29,11.43,1.05,22.84,1.47,34.27c0.1,2.78,1.11,3.94,3.83,4.57c6.51,1.5,13,3.16,19.34,5.23
	c1.71,0.56,3.77,2.64,4.13,4.34c1.53,7.22,2.69,14.54,3.5,21.88c0.18,1.7-1.06,4.28-2.47,5.31c-5.52,4.02-11.3,7.72-17.14,11.27
	c-2.37,1.44-3.05,2.78-2.14,5.52c3.49,10.51,6.61,21.15,10.19,31.62c0.49,1.42,2.72,3.04,4.26,3.17c5.6,0.47,11.26,0.42,16.89,0.4
	c4.18-0.02,7.26,1.16,9.26,5.31c2.21,4.58,5.02,8.9,7.87,13.13c1.72,2.55,1.87,4.41-0.24,6.9c-3.87,4.56-7.24,9.55-11.06,14.15
	c-1.78,2.15-1.86,3.65-0.2,5.93c6.39,8.85,12.43,17.95,18.95,26.7c1.12,1.49,4.1,2.62,5.98,2.33c6.94-1.09,13.83-2.66,20.63-4.44
	c3.8-1,6.45-0.72,9.14,2.64c3.72,4.66,8.36,8.59,12.19,13.17c1.36,1.62,2.26,4.31,2.09,6.41c-0.55,6.65-1.58,13.28-2.66,19.87
	c-0.56,3.37,0.25,5.43,3.37,7.31c9.36,5.61,18.59,11.45,27.62,17.57c3.59,2.43,6.15,2.64,9.68-0.18
	c5.49-4.37,11.26-10.84,17.34-11.36c6.3-0.54,13.03,5.14,19.71,7.74c3.99,1.56,6.17,3.88,6.92,8.23c1.03,5.87,2.59,11.69,4.34,17.39
	c0.5,1.63,2.24,3.7,3.77,4.07c10.96,2.6,21.98,4.92,33.05,6.98c1.49,0.28,3.92-0.96,4.92-2.27c3.75-4.88,6.96-10.17,10.67-15.09
	c0.98-1.29,2.99-2.47,4.57-2.52c9.33-0.3,18.68-0.44,28-0.14c1.89,0.06,4.42,1.82,5.45,3.52c3.07,5.11,5.69,10.52,8.21,15.94
	c1.14,2.44,2.42,3.37,5.21,2.97c7.14-1.03,14.31-2.09,21.5-2.45c5.93-0.3,9.13-2.64,10.41-8.56c1-4.6,2.76-9.12,4.79-13.38
	c0.98-2.05,3.09-4.3,5.16-4.97c8.68-2.84,17.5-5.33,26.38-7.46c2.14-0.51,5.11,0.21,7.03,1.43c5.04,3.21,9.61,7.15,14.59,10.46
	c1.27,0.85,3.75,1.15,5.05,0.48c10.04-5.1,19.97-10.41,29.79-15.92c1.19-0.67,2.16-3.01,2.06-4.49c-0.38-5.43-1.51-10.82-1.82-16.25
	c-0.11-1.87,0.84-4.46,2.23-5.65c5.89-5.03,12.01-9.81,18.31-14.31c1.74-1.24,4.47-1.87,6.6-1.63c6.64,0.77,13.18,2.3,19.81,3.08
	c1.84,0.22,4.45-0.6,5.72-1.9c6.26-6.43,12.14-13.24,18.28-19.79c2.13-2.27,2.93-4.33,1.76-7.52c-2.04-5.61-3.78-11.37-5.08-17.19
	c-0.51-2.28-0.15-5.26,0.96-7.29c3.88-7.1,8.45-13.82,12.38-20.89c2.02-3.62,4.29-5.35,8.67-5.1c5.24,0.3,10.56-0.14,15.79-0.73
	c1.63-0.19,3.92-1.58,4.47-2.98c4.6-11.61,8.94-23.32,13.1-35.1c0.46-1.3-0.21-3.73-1.24-4.69c-3.85-3.6-8.26-6.61-12.06-10.27
	c-1.34-1.29-2.32-3.94-2.05-5.75c1.4-9.21,3.38-18.33,4.92-27.53c0.57-3.4,2-5.11,5.57-5.64c5.67-0.85,11.26-2.24,16.89-3.41
	c0.63-9.87,1.31-19.16,1.79-28.47c0.23-4.47,1.75-10.1-0.33-13.15c-2.16-3.16-7.83-4.38-12.21-5.48
	c-8.89-2.22-13.92-6.78-13.33-16.64c0.24-3.97-1.44-8.02-1.39-12.02c0.03-2.89,0.85-6.18,2.43-8.55
	c3.71-5.55,8.14-10.61,12.14-15.98c0.84-1.12,1.79-2.93,1.46-4.06C563.95,210.66,560.5,200.15,557.09,189.47"/>
<path class="st1" d="M557.09,189.47c3.41,10.68,6.86,21.19,10.03,31.77c0.34,1.12-0.62,2.93-1.46,4.06
	c-3.99,5.37-8.43,10.43-12.14,15.98c-1.58,2.37-2.4,5.66-2.44,8.54c-0.05,4.01,1.63,8.06,1.39,12.02
	c-0.59,9.86,4.44,14.41,13.34,16.63c4.38,1.09,10.04,2.32,12.21,5.48c2.08,3.04,0.56,8.67,0.33,13.14
	c-0.48,9.31-1.16,18.6-1.79,28.47c-5.64,1.17-11.23,2.56-16.89,3.41c-3.57,0.53-5,2.25-5.57,5.65c-1.54,9.19-3.52,18.32-4.92,27.53
	c-0.27,1.82,0.71,4.46,2.05,5.75c3.79,3.66,8.2,6.67,12.06,10.27c1.03,0.96,1.7,3.39,1.24,4.69c-4.16,11.78-8.5,23.49-13.1,35.1
	c-0.55,1.4-2.85,2.79-4.47,2.98c-5.23,0.59-10.55,1.03-15.79,0.73c-4.38-0.25-6.66,1.48-8.67,5.1c-3.93,7.07-8.5,13.79-12.38,20.89
	c-1.11,2.03-1.47,5.01-0.96,7.29c1.29,5.82,3.03,11.58,5.08,17.19c1.17,3.19,0.37,5.24-1.76,7.52
	c-6.15,6.55-12.02,13.36-18.28,19.78c-1.27,1.31-3.87,2.12-5.72,1.9c-6.63-0.77-13.18-2.3-19.81-3.08c-2.14-0.25-4.87,0.38-6.6,1.62
	c-6.29,4.5-12.41,9.28-18.31,14.31c-1.38,1.19-2.34,3.78-2.23,5.65c0.31,5.43,1.44,10.82,1.82,16.25c0.11,1.48-0.86,3.81-2.06,4.49
	c-9.82,5.51-19.75,10.82-29.79,15.92c-1.3,0.67-3.78,0.37-5.05-0.48c-4.98-3.31-9.55-7.25-14.58-10.46
	c-1.92-1.22-4.89-1.95-7.03-1.44c-8.88,2.13-17.7,4.62-26.38,7.46c-2.08,0.68-4.19,2.92-5.16,4.97c-2.04,4.26-3.79,8.78-4.79,13.38
	c-1.29,5.93-4.48,8.26-10.41,8.56c-7.19,0.36-14.36,1.41-21.5,2.44c-2.8,0.41-4.08-0.52-5.22-2.96c-2.52-5.42-5.13-10.83-8.21-15.94
	c-1.03-1.7-3.55-3.46-5.45-3.52c-9.32-0.3-18.68-0.15-28.01,0.14c-1.57,0.05-3.58,1.23-4.56,2.52c-3.71,4.92-6.93,10.2-10.68,15.08
	c-1.01,1.31-3.43,2.55-4.92,2.27c-11.07-2.06-22.09-4.39-33.05-6.98c-1.53-0.36-3.27-2.44-3.77-4.07
	c-1.76-5.71-3.31-11.52-4.35-17.39c-0.76-4.34-2.94-6.67-6.93-8.23c-6.68-2.6-13.42-8.28-19.71-7.74
	c-6.08,0.53-11.85,6.99-17.34,11.37c-3.53,2.81-6.08,2.6-9.67,0.17c-9.04-6.12-18.27-11.96-27.62-17.57
	c-3.12-1.87-3.93-3.94-3.37-7.31c1.08-6.6,2.12-13.22,2.66-19.88c0.17-2.1-0.72-4.79-2.09-6.41c-3.83-4.58-8.47-8.5-12.19-13.17
	c-2.69-3.36-5.34-3.64-9.14-2.64c-6.8,1.79-13.68,3.35-20.62,4.45c-1.88,0.3-4.86-0.83-5.98-2.33c-6.53-8.75-12.56-17.85-18.96-26.7
	c-1.65-2.29-1.58-3.79,0.2-5.93c3.83-4.6,7.19-9.59,11.06-14.15c2.11-2.49,1.96-4.34,0.23-6.9c-2.85-4.23-5.65-8.55-7.87-13.13
	c-2-4.15-5.08-5.32-9.26-5.31c-5.64,0.02-11.28,0.07-16.89-0.4c-1.54-0.13-3.77-1.75-4.26-3.17c-3.58-10.48-6.71-21.12-10.19-31.63
	c-0.91-2.74-0.23-4.08,2.14-5.52c5.84-3.55,11.61-7.25,17.13-11.27c1.42-1.04,2.66-3.61,2.47-5.31c-0.81-7.34-1.96-14.66-3.5-21.88
	c-0.36-1.7-2.41-3.77-4.13-4.34c-6.34-2.07-12.83-3.73-19.34-5.23c-2.71-0.63-3.72-1.79-3.82-4.57
	c-0.42-11.43-1.18-22.84-1.47-34.26c-0.04-1.55,1.51-3.9,2.95-4.6c6.49-3.12,13.27-5.63,19.77-8.72c1.58-0.74,3.29-2.73,3.58-4.39
	c1.59-8.83,2.86-17.73,3.92-26.64c0.18-1.54-0.73-3.71-1.88-4.83c-4.28-4.18-8.78-8.14-13.38-11.97c-2.08-1.74-2.49-3.32-1.52-5.86
	c3.95-10.35,7.77-20.75,11.47-31.2c0.96-2.7,2.3-3.81,5.3-3.88c7.56-0.17,15.13-0.62,22.67-1.33c1.71-0.16,3.3-1.82,4.92-2.84
	c0.27-0.17,0.41-0.57,0.59-0.87c3.61-6.44,9.75-12.74,10.1-19.35c0.34-6.6-4.67-13.74-8.16-20.2c-2.81-5.19-2.09-8.57,1.93-12.77
	c7.66-8.01,14.81-16.53,21.86-25.09c2.44-2.97,4.6-3.38,8.05-2.1c6.42,2.39,13.09,4.1,19.52,6.47c3.05,1.12,5.23,0.81,7.64-1.35
	c4.73-4.22,9.58-8.33,14.6-12.18c2.59-1.99,3.33-4.18,2.91-7.26c-0.9-6.62-1.75-13.27-2.25-19.93c-0.11-1.43,0.98-3.7,2.19-4.36
	c9.69-5.35,19.49-10.55,29.44-15.43c1.53-0.75,4.41-0.3,5.92,0.71c5.55,3.72,10.63,8.16,16.24,11.79c2,1.3,5.21,1.96,7.5,1.4
	c7.84-1.91,15.58-4.33,23.22-6.95c1.82-0.63,3.77-2.51,4.53-4.31c2.76-6.46,5.13-13.09,7.44-19.74c0.91-2.62,2.12-3.94,5.15-4.18
	c9.29-0.76,18.57-1.81,27.81-3.01c3.4-0.44,5.53,0.38,7.27,3.48c2.76,4.9,6.29,9.38,8.94,14.33c2.01,3.74,4.68,5.18,8.77,5.25
	c6.85,0.11,13.71,0.46,20.56,0.93c3.05,0.21,4.8-0.86,6.29-3.55c2.8-5.08,6.21-9.83,9-14.91c1.47-2.68,3.12-3.17,5.93-2.55
	c10.99,2.44,22.06,4.53,33.01,7.11c1.67,0.39,3.71,2.48,4.17,4.16c1.59,5.75,2.81,11.65,3.65,17.55c0.55,3.84,2.33,6.05,5.93,7.04
	c0.34,0.09,0.67,0.2,1,0.34c6.14,2.62,12.43,7.61,18.37,7.22c6.4-0.42,12.73-5.48,18.6-9.27c4.6-2.98,7.89-2.43,12.12,0.65
	c8.39,6.12,17.28,11.54,25.74,17.57c1.38,0.97,2.16,3.56,2.21,5.42c0.07,2.39-0.53,4.95-1.43,7.2c-4.04,10.08-0.91,17,7.52,23.75
	c5.92,4.74,10.78,7.79,18.06,4.5c10.99-4.97,18.91-2.2,24.65,8.73c2.91,5.53,7.8,9.99,11.29,15.26c1.22,1.85,0.94,4.69,1.3,7.09
	c0.05,0.31-0.16,0.68-0.32,0.99c-7.26,14.21-5.81,27.68,2.71,40.98c1.9,2.96,3.39,4.25,6.84,4.12
	C543.01,189.29,549.88,189.47,557.09,189.47 M574.06,323.53c0.71-11.83,1.51-23.23,1.92-34.64c0.06-1.46-1.61-3.67-3.05-4.38
	c-5.85-2.84-12.03-5-17.84-7.91c-1.79-0.9-3.68-3.22-4.02-5.15c-1.35-7.79-2.34-15.68-2.94-23.57c-0.18-2.49,0.69-5.51,2.11-7.6
	c3.56-5.23,7.9-9.93,11.48-15.15c1.17-1.72,1.74-4.6,1.23-6.6c-1.96-7.66-4.59-15.15-6.73-22.78c-0.8-2.84-2.13-3.99-5.16-3.88
	c-5.99,0.22-11.98,0.15-17.98,0.01c-1.44-0.03-3.76-0.4-4.14-1.29c-4.92-11.42-15.74-21.49-8.11-35.92
	c1.92-3.64,2.67-8.02,3.37-12.16c0.33-1.94-0.13-4.55-1.26-6.1c-5.11-6.95-10.77-13.5-15.85-20.47c-2.33-3.19-4.48-4.03-8.36-2.93
	c-6.39,1.82-13.6,5.12-19.36,3.6c-5.79-1.53-9.98-8.51-15.32-12.49c-4.81-3.58-6.03-7.52-4.16-13.12c1.33-3.98,1.57-8.31,2.74-12.35
	c0.95-3.27,0.17-5.09-2.76-6.89c-8.4-5.15-16.73-10.46-24.8-16.11c-3.28-2.29-5.66-2.2-8.89-0.15c-5.05,3.19-10.29,6.16-15.72,8.63
	c-2.2,1-5.35,1.23-7.62,0.47c-5.65-1.89-10.94-4.88-16.59-6.79c-4.45-1.51-6.3-4.14-6.97-8.66c-0.78-5.37-2.67-10.59-3.51-15.96
	c-0.53-3.38-2.12-4.71-5.24-5.34c-9.48-1.94-18.95-3.95-28.35-6.21c-2.96-0.71-4.52,0.1-5.97,2.61c-3.01,5.17-6.38,10.14-9.39,15.3
	c-1.46,2.51-2.83,3.71-6.19,3.34c-8.03-0.87-16.15-1.13-24.24-1.32c-3.51-0.08-5.78-1.1-7.53-4.33c-3.02-5.57-6.36-10.98-9.94-16.2
	c-0.94-1.37-3.32-2.64-4.91-2.51c-8.59,0.75-17.17,1.73-25.67,3.15c-1.89,0.32-4.17,2.39-4.98,4.22
	c-2.78,6.26-4.78,12.86-7.54,19.14c-0.85,1.93-2.88,3.97-4.83,4.66c-8.3,2.9-16.71,5.5-25.2,7.76c-1.98,0.53-4.84-0.03-6.59-1.18
	c-6.19-4.03-11.97-8.7-18.14-12.75c-1.5-0.98-4.37-1.36-5.89-0.59c-8.62,4.37-16.98,9.28-25.56,13.74c-2.69,1.4-3.29,3.03-2.9,5.84
	c0.91,6.63,1.81,13.28,2.1,19.95c0.09,2.19-1.13,5.1-2.75,6.58c-5.33,4.86-10.98,9.41-16.81,13.65c-1.62,1.18-4.51,1.65-6.47,1.13
	c-6.79-1.8-13.46-4.08-20.11-6.38c-2.6-0.9-4.3-0.86-6.29,1.55c-7.41,8.96-15.03,17.75-22.8,26.39c-2.03,2.26-2.04,4.01-0.87,6.55
	c2.93,6.4,5.81,12.83,8.24,19.42c0.71,1.94,0.51,4.83-0.45,6.66c-3.35,6.38-7.01,12.62-10.99,18.64c-1.12,1.7-3.61,3.23-5.63,3.45
	c-6.98,0.79-14.03,1.19-21.06,1.29c-3.97,0.06-5.8,1.58-7,5.36c-2.77,8.71-5.9,17.32-9.17,25.86c-1.16,3.03-0.99,5.06,1.55,7.32
	c4.2,3.75,7.9,8.06,12.09,11.82c2.68,2.41,3.41,4.99,2.8,8.41c-1.49,8.31-2.61,16.69-4.3,24.97c-0.37,1.8-2.12,3.98-3.8,4.74
	c-6.4,2.89-13.08,5.16-19.55,7.93c-1.33,0.57-3.15,2.26-3.12,3.39c0.25,11.93,0.84,23.85,1.33,35.76
	c7.98,2.13,15.44,4.21,22.95,6.07c2.73,0.67,4.05,1.92,4.54,4.84c1.37,8.15,3.31,16.21,4.58,24.37c0.26,1.68-0.86,4.36-2.23,5.35
	c-5.7,4.12-11.67,7.88-17.67,11.55c-2.49,1.53-3.36,2.98-2.31,5.96c3.14,8.96,5.85,18.08,9.06,27.02c0.52,1.44,2.68,3.09,4.21,3.24
	c6.3,0.58,12.66,0.5,18.97,0.96c1.72,0.12,4.08,0.8,4.91,2.05c4.94,7.44,9.53,15.11,14.29,22.82c-4.78,5.85-9.23,11.54-13.97,16.97
	c-2.1,2.4-2.37,4.11-0.33,6.78c5.34,7,10.55,14.12,15.35,21.49c2.4,3.68,4.85,4.71,9.04,3.55c6.61-1.84,13.32-3.38,20.08-4.49
	c1.96-0.33,4.79,0.62,6.25,2.02c5.36,5.08,10.47,10.46,15.32,16.04c1.37,1.59,2.26,4.31,2.08,6.39c-0.57,6.47-1.68,12.91-2.75,19.33
	c-0.48,2.87-0.13,4.85,2.65,6.61c9.07,5.76,17.98,11.77,26.83,17.86c2.25,1.55,3.85,1.61,6.04-0.05c4.91-3.72,9.91-7.36,15.12-10.61
	c1.61-1,4.32-1.4,6.07-0.79c7.97,2.79,15.82,5.9,23.57,9.24c1.62,0.69,3.29,2.62,3.79,4.31c1.88,6.41,3.11,13.01,4.99,19.41
	c0.47,1.58,2.29,3.54,3.83,3.91c9.91,2.39,19.9,4.5,29.94,6.36c1.5,0.28,3.97-0.79,4.92-2.05c3.39-4.49,6.12-9.48,9.51-13.96
	c1.16-1.53,3.52-2.91,5.4-3.01c10.02-0.53,20.05-0.82,30.08-0.73c1.9,0.02,4.54,1.62,5.54,3.28c3.27,5.41,5.75,11.29,8.95,16.74
	c0.8,1.36,3.22,2.66,4.77,2.53c7.53-0.64,15.05-1.61,22.5-2.88c1.59-0.27,3.58-2,4.18-3.52c2.25-5.72,4.17-11.59,5.86-17.5
	c0.88-3.07,2.4-4.63,5.55-5.43c8.69-2.19,17.38-4.47,25.9-7.26c5.09-1.67,8.94-1.03,12.84,2.71c3.41,3.27,7.35,6.04,11.32,8.64
	c1.27,0.84,3.68,1.14,5.01,0.51c8.72-4.18,17.36-8.57,25.84-13.21c1.38-0.75,2.68-3.17,2.62-4.77c-0.18-5.26-0.77-10.54-1.64-15.73
	c-0.57-3.4,0.32-5.58,3.12-7.57c5.45-3.88,10.96-7.76,15.89-12.25c4.86-4.42,9.75-6.04,16.22-4.17c4.87,1.41,10.03,1.98,15.1,2.38
	c1.87,0.14,4.43-0.71,5.71-2.05c5.5-5.7,10.8-11.61,15.78-17.76c1.27-1.56,1.86-4.46,1.43-6.45c-1.36-6.35-3.55-12.53-4.98-18.87
	c-0.44-1.94-0.11-4.54,0.89-6.26c4.77-8.22,9.71-16.36,14.99-24.25c1.19-1.79,3.94-3.3,6.12-3.52c5.58-0.58,11.27-0.19,16.88-0.57
	c1.56-0.1,3.95-1.19,4.41-2.42c4.47-11.8,8.62-23.72,12.9-35.72c-4.91-3.92-9.71-7.5-14.17-11.47c-1.3-1.16-2.51-3.56-2.25-5.16
	c1.74-10.95,3.76-21.85,6.03-32.7c0.32-1.53,2.31-3.45,3.87-3.86C561.71,325.73,567.64,324.79,574.06,323.53"/>
<path class="st0" d="M574.05,323.53c-6.42,1.26-12.34,2.2-18.12,3.7c-1.56,0.4-3.55,2.32-3.87,3.86
	c-2.27,10.85-4.29,21.76-6.03,32.7c-0.26,1.59,0.95,4,2.25,5.16c4.46,3.97,9.27,7.55,14.17,11.46c-4.28,12-8.43,23.93-12.9,35.72
	c-0.46,1.23-2.85,2.31-4.42,2.42c-5.62,0.38-11.3,0-16.88,0.58c-2.18,0.22-4.92,1.73-6.12,3.52c-5.28,7.89-10.23,16.03-14.99,24.25
	c-0.99,1.71-1.33,4.31-0.89,6.26c1.44,6.34,3.62,12.51,4.98,18.87c0.43,1.99-0.16,4.89-1.43,6.45
	c-4.98,6.15-10.29,12.06-15.78,17.76c-1.28,1.33-3.84,2.19-5.71,2.05c-5.08-0.4-10.24-0.98-15.1-2.38
	c-6.47-1.87-11.36-0.25-16.22,4.17c-4.94,4.49-10.45,8.37-15.89,12.25c-2.8,2-3.69,4.17-3.12,7.58c0.87,5.19,1.47,10.47,1.64,15.74
	c0.06,1.59-1.24,4.01-2.62,4.77c-8.48,4.65-17.12,9.03-25.84,13.22c-1.33,0.63-3.74,0.32-5.01-0.52c-3.96-2.6-7.91-5.37-11.32-8.65
	c-3.9-3.75-7.75-4.38-12.84-2.71c-8.51,2.8-17.2,5.07-25.9,7.27c-3.15,0.79-4.67,2.35-5.55,5.42c-1.69,5.91-3.61,11.78-5.86,17.5
	c-0.6,1.53-2.59,3.26-4.17,3.53c-7.46,1.26-14.98,2.23-22.51,2.88c-1.55,0.13-3.98-1.17-4.77-2.53c-3.2-5.46-5.68-11.34-8.95-16.75
	c-1-1.65-3.64-3.26-5.54-3.28c-10.03-0.08-20.07,0.2-30.08,0.73c-1.88,0.1-4.23,1.48-5.39,3.01c-3.4,4.48-6.13,9.46-9.52,13.96
	c-0.94,1.26-3.41,2.33-4.92,2.05c-10.03-1.86-20.02-3.98-29.94-6.37c-1.54-0.37-3.36-2.32-3.83-3.91c-1.89-6.4-3.11-13-4.99-19.41
	c-0.49-1.69-2.17-3.61-3.79-4.31c-7.75-3.33-15.61-6.45-23.57-9.23c-1.75-0.61-4.46-0.21-6.06,0.79
	c-5.22,3.26-10.22,6.9-15.13,10.62c-2.19,1.66-3.78,1.6-6.03,0.05c-8.85-6.09-17.76-12.09-26.83-17.85
	c-2.78-1.77-3.13-3.75-2.65-6.62c1.07-6.42,2.18-12.85,2.75-19.33c0.18-2.08-0.7-4.8-2.07-6.38c-4.85-5.58-9.96-10.96-15.31-16.04
	c-1.46-1.39-4.3-2.35-6.26-2.02c-6.76,1.11-13.47,2.66-20.07,4.49c-4.2,1.16-6.65,0.13-9.05-3.55
	c-4.81-7.37-10.03-14.48-15.36-21.49c-2.04-2.67-1.76-4.38,0.33-6.78c4.74-5.43,9.19-11.12,13.97-16.97
	c-4.77-7.7-9.35-15.38-14.29-22.82c-0.83-1.25-3.19-1.92-4.91-2.04c-6.32-0.45-12.67-0.37-18.97-0.96
	c-1.53-0.14-3.69-1.79-4.21-3.24c-3.21-8.94-5.92-18.05-9.06-27.01c-1.05-2.98-0.17-4.43,2.32-5.95c6-3.67,11.98-7.43,17.67-11.56
	c1.37-0.99,2.49-3.67,2.23-5.34c-1.28-8.17-3.22-16.23-4.58-24.38c-0.49-2.92-1.82-4.16-4.54-4.84c-7.51-1.86-14.96-3.94-22.95-6.07
	c-0.49-11.9-1.07-23.83-1.33-35.76c-0.02-1.14,1.79-2.82,3.13-3.39c6.46-2.76,13.14-5.04,19.55-7.93c1.68-0.76,3.44-2.94,3.8-4.74
	c1.68-8.27,2.8-16.66,4.29-24.97c0.61-3.42-0.11-6-2.8-8.41c-4.19-3.76-7.89-8.07-12.09-11.82c-2.54-2.26-2.7-4.29-1.55-7.32
	c3.27-8.54,6.41-17.14,9.18-25.86c1.19-3.77,3.03-5.29,7-5.35c7.03-0.1,14.08-0.51,21.05-1.3c2.02-0.23,4.51-1.76,5.64-3.46
	c3.97-6.01,7.64-12.25,10.98-18.64c0.96-1.84,1.16-4.72,0.45-6.66c-2.43-6.59-5.32-13.02-8.25-19.42c-1.16-2.54-1.16-4.29,0.87-6.55
	c7.77-8.65,15.39-17.43,22.79-26.4c1.99-2.41,3.7-2.46,6.3-1.55c6.64,2.3,13.32,4.59,20.11,6.39c1.95,0.51,4.84,0.04,6.46-1.14
	c5.83-4.24,11.48-8.78,16.81-13.64c1.62-1.48,2.84-4.39,2.75-6.58c-0.29-6.67-1.19-13.32-2.1-19.94c-0.39-2.82,0.21-4.45,2.9-5.85
	c8.59-4.46,16.94-9.38,25.57-13.74c1.51-0.77,4.38-0.39,5.88,0.6c6.18,4.05,11.96,8.72,18.15,12.75c1.75,1.14,4.6,1.71,6.59,1.18
	c8.49-2.27,16.9-4.86,25.2-7.76c1.95-0.68,3.98-2.73,4.82-4.66c2.75-6.27,4.76-12.88,7.54-19.14c0.81-1.83,3.1-3.9,4.99-4.22
	c8.49-1.42,17.08-2.41,25.66-3.15c1.6-0.14,3.98,1.14,4.91,2.5c3.58,5.22,6.93,10.63,9.94,16.2c1.75,3.23,4.02,4.25,7.53,4.33
	c8.09,0.19,16.2,0.45,24.24,1.32c3.36,0.37,4.73-0.83,6.19-3.34c3.02-5.17,6.38-10.13,9.39-15.3c1.45-2.5,3.01-3.31,5.98-2.61
	c9.4,2.26,18.87,4.27,28.35,6.2c3.12,0.64,4.71,1.96,5.23,5.34c0.85,5.37,2.73,10.59,3.52,15.96c0.66,4.52,2.52,7.15,6.97,8.66
	c5.65,1.91,10.93,4.9,16.59,6.79c2.27,0.76,5.42,0.53,7.62-0.47c5.43-2.48,10.67-5.44,15.71-8.63c3.24-2.04,5.62-2.14,8.9,0.16
	c8.07,5.66,16.39,10.96,24.8,16.11c2.92,1.8,3.71,3.62,2.75,6.89c-1.17,4.05-1.41,8.38-2.74,12.35c-1.87,5.61-0.66,9.54,4.16,13.12
	c5.34,3.98,9.53,10.97,15.32,12.5c5.75,1.52,12.96-1.78,19.36-3.6c3.88-1.1,6.03-0.26,8.36,2.93c5.08,6.97,10.75,13.51,15.85,20.47
	c1.13,1.55,1.59,4.15,1.26,6.09c-0.71,4.14-1.45,8.52-3.37,12.16c-7.63,14.43,3.19,24.49,8.11,35.92c0.38,0.88,2.71,1.26,4.14,1.29
	c5.99,0.14,11.98,0.2,17.98-0.02c3.03-0.11,4.36,1.03,5.16,3.88c2.14,7.62,4.77,15.11,6.73,22.78c0.51,2-0.05,4.88-1.23,6.6
	c-3.58,5.22-7.93,9.91-11.48,15.15c-1.42,2.08-2.29,5.1-2.11,7.59c0.59,7.89,1.59,15.77,2.94,23.56c0.34,1.93,2.22,4.25,4.02,5.15
	c5.81,2.91,11.99,5.07,17.84,7.92c1.44,0.69,3.11,2.91,3.05,4.37C575.57,300.3,574.77,311.7,574.05,323.53 M221.37,233.06
	c3.59,4.62,6.91,8.89,10.2,13.12c-1.7,2.53-3.4,4.59-4.57,6.92c-1.6,3.16-3.64,3.44-6.87,2.53c-11.85-3.32-11.89-3.2-16.1,8.59
	c-0.1,0.29,0.07,0.67,0.15,1.28c4.48,2.65,9.09,5.38,13.53,8.01c-2.59,12.16-2.59,12.16-13.94,13.98c-1.35,0.22-2.72,0.39-4.24,0.61
	v13.26c5.49,0.88,10.65,1.71,15.69,2.51c0.81,4.25,1.52,8.02,2.29,12.03c-4.48,2.75-8.94,5.49-13.6,8.36
	c1.77,4.25,3.42,8.22,5.12,12.31c5.4-1.43,10.28-2.72,15.26-4.04c2.43,3.73,4.71,7.24,7.06,10.86c-3.14,4.18-6.19,8.25-9.1,12.14
	c3.25,3.48,6.33,6.77,9.51,10.18c1.86-1.48,3.37-2.67,4.88-3.87c7.19-5.74,7.09-5.59,14.79-0.85c2.91,1.79,3.55,3.36,2.57,6.75
	c-3.2,11.05-3.01,11.11,7.77,15.33c0.47,0.19,0.99,0.27,1.91,0.5c2.12-3.56,4.14-7.24,6.48-10.7c0.71-1.04,2.39-2.2,3.49-2.07
	c3.6,0.42,7.13,1.4,10.68,2.16c0.76,5.15,1.47,9.99,2.19,14.89h13.43c0.78-5.27,1.51-10.24,2.22-15.08
	c4.5-0.84,8.41-1.58,12.39-2.32c2.66,4.65,5.17,9.03,7.79,13.6c4.47-1.93,8.57-3.69,12.59-5.42c-1.42-5.47-2.64-10.19-3.87-14.94
	c3.69-2.52,7.15-4.88,10.68-7.29c4.31,3.21,8.49,6.33,11.88,8.87c3.77-3.23,7.07-6.07,10.43-8.95c-3.4-4.49-6.46-8.53-9.5-12.54
	c1.7-2.52,3.42-4.58,4.57-6.92c1.61-3.26,3.52-4.27,7.12-2.85c3.36,1.32,7.02,1.9,10.87,2.89c1.81-4.36,3.45-8.32,5.33-12.88
	c-9.47-3.44-16.89-7.89-11.4-19.29c0.14-0.29,0.36-0.56,0.65-1.01c4.87-0.75,9.87-1.53,14.94-2.31v-13.37
	c-3.95-0.51-7.59-1.1-11.25-1.44c-2.97-0.27-4.93-1.3-5.17-4.63c-0.12-1.74-0.57-3.48-1.09-5.15c-0.87-2.82-0.04-4.58,2.66-5.92
	c3.59-1.78,6.99-3.94,10.75-6.1c-1.83-4.31-3.53-8.29-5.34-12.53c-1.78,0.42-3.29,0.74-4.78,1.14c-11.37,3.07-11.37,3.07-17.67-7.48
	c0.78-1.09,1.58-2.24,2.41-3.37c7.23-9.83,7.24-9.83-1.23-18.51c-0.33-0.33-0.89-0.44-1.43-0.7c-3.52,2.71-6.88,5.59-10.57,7.95
	c-1.19,0.76-3.33,0.48-4.89,0.09c-1.27-0.33-2.24-1.71-3.49-2.3c-3.63-1.68-4.75-3.94-3.09-7.9c1.4-3.34,1.97-7.03,2.99-10.89
	c-4.35-1.77-8.34-3.4-12.58-5.13c-2.4,4.1-4.41,8.02-6.93,11.58c-0.84,1.18-2.95,1.77-4.57,2.02c-1.29,0.2-2.72-0.74-4.09-0.77
	c-4.1-0.12-5.89-2.05-6-6.19c-0.1-3.62-0.83-7.23-1.31-11h-13.44c-0.82,5.44-1.62,10.76-2.42,16.06c-2.93,0.59-5.62,0.81-8.07,1.7
	c-3.3,1.21-5.15,0.36-6.71-2.75c-1.8-3.58-4.12-6.9-6.4-10.63c-4.36,1.89-8.43,3.65-12.41,5.37c1.33,4.83,2.58,8.87,3.46,12.99
	c0.26,1.22-0.12,3.22-0.97,3.91c-2.69,2.17-5.74,3.89-8.67,5.79c-4.46-3.32-8.65-6.43-13-9.67
	C227.86,226.89,224.7,229.89,221.37,233.06"/>
<path class="st1" d="M221.37,233.06c3.33-3.17,6.48-6.16,9.97-9.48c4.35,3.24,8.55,6.36,13,9.67c2.93-1.9,5.98-3.62,8.67-5.79
	c0.85-0.69,1.23-2.69,0.97-3.91c-0.88-4.12-2.13-8.15-3.46-12.99c3.98-1.73,8.06-3.49,12.41-5.37c2.28,3.73,4.6,7.04,6.4,10.63
	c1.57,3.11,3.42,3.95,6.71,2.75c2.44-0.89,5.14-1.11,8.07-1.7c0.8-5.3,1.6-10.62,2.42-16.06h13.44c0.47,3.77,1.2,7.38,1.31,11
	c0.12,4.14,1.91,6.07,6,6.19c1.37,0.04,2.8,0.98,4.09,0.78c1.62-0.25,3.73-0.84,4.57-2.02c2.52-3.55,4.53-7.47,6.93-11.58
	c4.24,1.73,8.23,3.36,12.58,5.13c-1.02,3.86-1.59,7.55-2.99,10.89c-1.67,3.96-0.55,6.22,3.09,7.9c1.25,0.58,2.22,1.98,3.49,2.3
	c1.56,0.39,3.7,0.67,4.89-0.09c3.69-2.36,7.05-5.24,10.57-7.95c0.55,0.26,1.11,0.36,1.43,0.7c8.47,8.68,8.46,8.68,1.23,18.51
	c-0.83,1.13-1.63,2.28-2.41,3.37c6.29,10.56,6.29,10.55,17.67,7.48c1.49-0.4,3-0.72,4.78-1.14c1.8,4.24,3.5,8.22,5.34,12.52
	c-3.76,2.15-7.16,4.32-10.75,6.1c-2.7,1.34-3.53,3.1-2.66,5.91c0.52,1.67,0.97,3.42,1.09,5.16c0.23,3.34,2.19,4.36,5.17,4.63
	c3.66,0.34,7.3,0.92,11.25,1.44v13.37c-5.07,0.78-10.07,1.56-14.94,2.3c-0.3,0.46-0.51,0.72-0.65,1.02
	c-5.49,11.39,1.93,15.84,11.4,19.29c-1.88,4.56-3.52,8.51-5.33,12.88c-3.85-0.99-7.5-1.56-10.87-2.89c-3.6-1.42-5.51-0.41-7.12,2.85
	c-1.15,2.33-2.87,4.39-4.57,6.91c3.04,4.01,6.09,8.05,9.5,12.55c-3.36,2.88-6.66,5.71-10.43,8.94c-3.4-2.53-7.58-5.65-11.88-8.87
	c-3.53,2.41-6.99,4.77-10.68,7.29c1.23,4.75,2.45,9.47,3.87,14.94c-4.02,1.73-8.12,3.49-12.59,5.42c-2.62-4.56-5.12-8.95-7.79-13.59
	c-3.98,0.74-7.89,1.48-12.39,2.32c-0.71,4.84-1.45,9.8-2.22,15.07h-13.43c-0.72-4.9-1.44-9.74-2.19-14.89
	c-3.55-0.76-7.08-1.74-10.68-2.16c-1.09-0.13-2.78,1.02-3.49,2.07c-2.34,3.46-4.36,7.14-6.48,10.69c-0.92-0.24-1.43-0.31-1.91-0.5
	c-10.78-4.23-10.97-4.28-7.77-15.33c0.98-3.39,0.34-4.96-2.57-6.75c-7.69-4.73-7.6-4.88-14.79,0.86c-1.51,1.2-3.02,2.4-4.88,3.88
	c-3.19-3.41-6.27-6.71-9.51-10.18c2.91-3.88,5.97-7.96,9.1-12.14c-2.35-3.61-4.63-7.12-7.06-10.86c-4.98,1.33-9.86,2.62-15.26,4.04
	c-1.7-4.09-3.35-8.06-5.12-12.31c4.66-2.86,9.11-5.6,13.6-8.36c-0.77-4.01-1.48-7.78-2.29-12.03c-5.04-0.81-10.2-1.63-15.69-2.51
	V288.1c1.52-0.22,2.89-0.39,4.24-0.61c11.35-1.81,11.35-1.82,13.94-13.98c-4.44-2.64-9.05-5.37-13.53-8.02
	c-0.09-0.61-0.26-0.99-0.15-1.28c4.21-11.79,4.25-11.91,16.1-8.58c3.23,0.9,5.27,0.63,6.87-2.53c1.17-2.33,2.87-4.4,4.57-6.92
	C228.28,241.95,224.97,237.69,221.37,233.06 M294.72,289.69c-12.04-12.81-23.48-25-34.94-37.15c-4.78-5.06-7.92-5.19-12.42-0.66
	c-22.83,22.91-22.55,64.08,0.59,86.48c3.72,3.6,7.66,4.04,10.72,1.19c3.3-3.07,3.26-7.27-0.52-11.11
	c-8.7-8.83-13.21-19.52-13.58-31.74c-0.33-10.88,2.33-21.06,9.52-29.99c11.86,12.69,23.37,25.05,34.92,37.37
	c4.32,4.6,8.27,4.51,12.41-0.32c3.21-3.74,6.33-7.56,9.47-11.36c7.04-8.51,14.05-17.04,21.27-25.79c5.88,8.44,8.97,17.2,9.3,26.98
	c0.47,13.77-4.24,25.47-13.68,35.39c-2.99,3.15-3.31,6.58-0.24,9.84c2.78,2.95,7.05,2.78,10.39-0.18c0.53-0.46,1.02-0.96,1.51-1.48
	c20.56-21.85,21.8-58.17,2.77-81.47c-8.47-10.38-10.88-10.39-19.21-0.25C313.74,266.7,304.44,277.92,294.72,289.69"/>
<path class="st0" d="M294.72,289.69c9.72-11.77,19.02-22.99,28.27-34.25c8.34-10.14,10.74-10.13,19.21,0.25
	c19.03,23.3,17.79,59.62-2.77,81.47c-0.48,0.52-0.98,1.02-1.51,1.48c-3.34,2.96-7.61,3.13-10.39,0.18
	c-3.07-3.25-2.75-6.69,0.24-9.84c9.44-9.93,14.15-21.62,13.68-35.39c-0.34-9.78-3.42-18.54-9.3-26.98
	c-7.22,8.75-14.23,17.27-21.27,25.79c-3.14,3.8-6.26,7.62-9.47,11.36c-4.14,4.83-8.1,4.93-12.41,0.32
	c-11.55-12.33-23.06-24.69-34.92-37.37c-7.19,8.93-9.85,19.11-9.52,29.99c0.37,12.22,4.88,22.91,13.58,31.74
	c3.79,3.84,3.82,8.04,0.52,11.11c-3.06,2.85-7.01,2.41-10.72-1.19c-23.14-22.4-23.42-63.57-0.59-86.48
	c4.51-4.53,7.65-4.4,12.42,0.66C271.25,264.69,282.68,276.88,294.72,289.69"/>
<polygon class="st2" points="90.09,229.56 98.31,214.24 156.19,223.21 156.28,223.03 116.58,180.19 124.72,165.04 186.88,198.41 
	181.32,208.77 133.35,183.02 133.25,183.2 171.98,226.18 167.16,235.16 109.94,226.65 109.84,226.82 157.82,252.57 152.26,262.93 
	"/>
<path class="st2" d="M159.74,122.79l-5.96-8.86l9.35-6.28l5.96,8.86L159.74,122.79z M177.25,98.16l5.95,8.86l-9.35,6.29l-5.96-8.86
	L177.25,98.16z M170.49,125.32l10.92-7.33l61.92,43.4l-10.99,7.39l-15.92-11.81l-23.38,15.71l4.93,19.2L187.38,199L170.49,125.32z
	 M208.47,151l-25.7-19.29l-0.25,0.17l8.06,31.13L208.47,151z"/>
<polygon class="st2" points="232.76,92.75 245.64,90.73 285.5,137.11 285.69,137.08 277.66,85.72 289.28,83.91 300.18,153.61 
	287.29,155.63 247.55,109.34 247.26,109.38 255.27,160.64 243.65,162.45 "/>
<polygon class="st2" points="328.11,86.57 340.59,90.37 356.27,149.47 356.46,149.53 371.59,99.8 382.85,103.23 362.3,170.73 
	349.82,166.93 334.21,107.95 333.92,107.86 318.81,157.49 307.56,154.06 "/>
<polygon class="st2" points="415.49,122.65 453.68,156.1 446.65,164.13 417.75,138.81 405.58,152.7 432.32,176.14 425.69,183.71 
	398.94,160.28 385.34,175.81 414.76,201.58 407.73,209.61 369.02,175.7 "/>
<path class="st2" d="M474.36,183.62l14.17,30.56c6.53,14.07,3.36,24.14-7.49,29.17c-12.28,5.69-19.32-1.28-21.04-3.09l-0.18,0.08
	c1.33,4.06,0.91,11.12-9.13,15.78c-7.52,3.49-13.74,7.68-15.23,11.31l-5.56-12.01c1.99-2.99,5.49-4.61,8.62-6.07
	c11.74-5.44,15.82-10.27,11.04-20.58l-7.65-16.49l-26.35,12.21l-5.19-11.2L474.36,183.62z M450.43,208.33l8.52,18.37
	c3.32,7.17,8.47,9.36,15.28,6.2c8.25-3.82,7.33-9.81,4.62-15.64l-8.43-18.19L450.43,208.33z"/>
<polygon class="st2" points="160.39,377.19 201.46,422.46 193.01,430.14 176.87,412.35 129.41,455.42 120.53,445.63 167.99,402.56 
	151.93,384.86 "/>
<path class="st2" d="M247.03,485.32c-9.08,19.68-28.95,30.19-49.41,20.75c-20.45-9.44-25.35-31.38-16.27-51.06
	c8.99-19.49,28.96-30.19,49.41-20.75C251.21,443.7,256.03,465.83,247.03,485.32 M193.36,460.56c-6.07,13.15-5.91,28.95,8.78,35.73
	c14.69,6.78,26.82-3.34,32.89-16.5c6.07-13.15,5.9-28.96-8.79-35.73C211.55,437.28,199.43,447.4,193.36,460.56"/>
<path class="st2" d="M262.12,449.33l13.22,0.21l-0.73,44c-0.16,10.15,0.28,21.9,17.41,22.19c17.13,0.29,17.96-11.44,18.13-21.6
	l0.73-44l13.22,0.22l-0.8,48.33c-0.32,19.36-12.85,28.78-31.47,28.47c-18.62-0.31-30.83-10.14-30.51-29.49L262.12,449.33z"/>
<path class="st2" d="M329.54,448.55l32.9-14.77c15.15-6.8,25.89-3.28,31.13,8.4c5.93,13.21-1.62,20.67-3.59,22.47l0.09,0.19
	c4.36-1.37,11.92-0.82,16.76,9.98c3.64,8.11,8.04,14.82,11.9,16.45l-12.93,5.8c-3.17-2.17-4.86-5.93-6.38-9.31
	c-5.67-12.64-10.78-17.07-21.88-12.09l-17.75,7.97l12.73,28.36l-12.06,5.42L329.54,448.55z M355.67,474.5l19.78-8.88
	c7.72-3.46,10.13-8.95,6.83-16.28c-3.98-8.88-10.41-7.96-16.68-5.15l-19.58,8.79L355.67,474.5z"/>
<path class="st2" d="M429.87,448.88c8.4,7.89,17.66,4.82,24.89-2.89c7.96-8.48,6.68-15.63,2.6-19.46
	c-4.24-3.98-8.11-3.26-11.05-1.81c-5.16,2.56-10.72,6.48-19.96,12.15c-11.37,7.17-19.68,4.45-25.39-0.91
	c-11.11-10.42-6.65-25.37,2.69-35.32c10.71-11.42,25.91-15.42,37.41-4.64l-9.05,9.64c-7.6-6.12-14.56-3.95-20.85,2.76
	c-4.2,4.47-7.86,11.62-2.3,16.83c3.93,3.69,8.4,2.95,13.24,0.1c1.03-0.63,15.62-9.85,19.15-11.91c8.96-5.07,18.23-3.05,24.09,2.45
	c12.34,11.58,6.93,27.23-3.27,38.11c-11.79,12.57-27.36,17.11-41.23,4.53L429.87,448.88z"/>
<path class="st2" d="M293.88,419.2c-67.2,0-121.88-54.67-121.88-121.87c0-67.2,54.68-121.88,121.88-121.88
	c67.2,0,121.87,54.68,121.87,121.88C415.75,364.53,361.08,419.2,293.88,419.2 M293.88,184.26c-62.34,0-113.06,50.72-113.06,113.06
	c0,62.34,50.73,113.06,113.06,113.06c62.34,0,113.06-50.72,113.06-113.06C406.94,234.98,356.22,184.26,293.88,184.26"/>
<polygon points="289.03,319.16 275.82,319.16 275.82,311.01 311.93,311.01 311.93,319.16 298.72,319.16 298.72,355.08 
	289.03,355.08 "/>
</svg>
